<svg id="svg" version="1.1" xmlns="http://www.w3.org/2000/svg" xmlns:xlink="http://www.w3.org/1999/xlink" width="400" height="400" viewBox="0, 0, 400,400"><g id="svgg"><path id="path0" d="M186.553 106.849 C 185.398 107.312,184.186 108.801,184.178 109.766 C 184.170 110.651,184.040 110.688,180.566 110.798 C 172.228 111.062,168.360 114.779,168.028 122.847 C 167.889 126.246,168.148 125.970,165.101 125.974 C 161.356 125.979,160.406 126.951,160.208 130.980 L 160.099 133.196 159.493 133.311 C 157.688 133.654,157.617 133.935,157.617 140.772 C 157.617 148.821,157.620 148.826,161.786 148.827 C 165.858 148.829,165.855 148.835,165.779 140.829 C 165.715 133.974,165.710 133.951,164.094 133.429 L 163.281 133.166 163.281 131.343 C 163.281 128.924,163.301 128.906,165.928 128.906 L 167.961 128.906 168.014 155.615 L 168.066 182.324 168.522 183.454 C 169.121 184.938,170.727 186.666,172.202 187.412 L 173.340 187.988 194.434 188.086 C 222.900 188.218,227.919 188.138,229.147 187.533 C 230.615 186.810,231.940 185.486,232.660 184.025 L 233.301 182.723 233.352 155.815 L 233.404 128.906 235.526 128.906 C 238.162 128.906,238.118 128.863,238.044 131.364 L 237.988 133.277 237.392 133.431 C 237.063 133.516,236.580 133.814,236.317 134.093 L 235.840 134.601 235.783 140.726 C 235.707 148.978,235.680 148.924,239.844 148.924 C 243.992 148.924,243.946 149.013,243.945 140.976 C 243.944 133.863,243.937 133.834,242.248 133.358 L 241.309 133.094 241.211 130.756 C 241.044 126.769,240.153 125.919,236.023 125.811 L 233.443 125.744 233.349 122.589 C 233.111 114.583,228.962 110.742,220.550 110.742 L 217.642 110.742 217.326 109.606 C 216.970 108.326,216.315 107.548,215.137 107.008 C 214.256 106.604,187.536 106.455,186.553 106.849 M215.346 115.739 C 217.342 116.739,217.189 120.206,215.107 121.127 C 213.897 121.662,187.168 121.509,185.995 120.960 C 183.919 119.988,184.186 116.309,186.388 115.552 C 187.488 115.174,214.566 115.349,215.346 115.739 M226.020 124.423 C 227.108 124.725,228.334 125.761,228.896 126.852 L 229.395 127.822 229.395 142.573 L 229.395 157.324 228.963 158.131 C 228.404 159.175,226.985 160.417,226.019 160.706 C 225.456 160.875,218.837 160.934,200.568 160.934 L 175.879 160.934 174.902 160.472 C 173.706 159.906,173.012 159.190,172.423 157.910 L 171.973 156.934 171.973 142.480 C 171.973 126.468,171.897 127.441,173.265 125.883 C 173.627 125.471,174.363 124.928,174.901 124.678 L 175.879 124.223 200.586 124.222 C 217.009 124.221,225.537 124.289,226.020 124.423 M189.056 128.467 L 187.988 129.590 189.111 128.522 C 190.155 127.531,190.324 127.344,190.179 127.344 C 190.148 127.344,189.643 127.849,189.056 128.467 M191.299 138.330 L 190.527 139.160 191.357 138.388 C 192.129 137.670,192.277 137.500,192.129 137.500 C 192.098 137.500,191.724 137.874,191.299 138.330 M182.227 140.527 C 181.426 141.333,180.815 141.992,180.869 141.992 C 180.923 141.992,181.622 141.333,182.422 140.527 C 183.222 139.722,183.833 139.063,183.779 139.063 C 183.726 139.063,183.027 139.722,182.227 140.527 M178.906 170.054 C 181.087 170.941,182.304 173.841,181.398 175.991 C 179.380 180.777,172.559 179.485,172.559 174.316 C 172.559 170.881,175.720 168.758,178.906 170.054 M226.756 170.178 C 229.370 171.516,230.002 175.132,228.007 177.340 C 224.963 180.710,219.704 178.276,220.175 173.716 C 220.512 170.447,223.814 168.672,226.756 170.178 M215.784 171.719 C 215.949 173.153,217.152 173.047,200.795 173.047 C 184.589 173.047,185.938 173.164,185.938 171.760 L 185.938 171.091 200.830 171.141 L 215.723 171.191 215.784 171.719 M214.358 174.613 C 214.551 174.926,214.070 176.154,213.669 176.369 C 213.440 176.491,208.670 176.563,200.711 176.563 L 188.114 176.563 187.718 176.058 C 187.160 175.350,187.014 174.790,187.333 174.588 C 187.723 174.341,214.205 174.365,214.358 174.613 M212.270 178.468 C 212.310 178.755,212.126 179.115,211.743 179.498 L 211.153 180.088 200.807 180.034 L 190.461 179.980 189.957 179.507 C 189.480 179.058,189.297 178.346,189.585 178.058 C 189.657 177.986,194.777 177.949,200.962 177.977 L 212.207 178.027 212.270 178.468 M184.231 197.601 C 184.528 197.646,184.968 197.645,185.208 197.598 C 185.448 197.552,185.205 197.515,184.668 197.517 C 184.131 197.518,183.934 197.556,184.231 197.601 M217.920 197.599 C 218.162 197.645,218.557 197.645,218.799 197.599 C 219.041 197.552,218.843 197.514,218.359 197.514 C 217.876 197.514,217.678 197.552,217.920 197.599 M106.250 220.000 C 106.250 220.043,107.713 223.712,109.500 228.154 C 112.350 235.235,120.562 255.862,121.446 258.158 L 121.767 258.993 125.465 258.940 L 129.162 258.887 135.349 243.457 C 138.751 234.971,142.253 226.279,143.131 224.141 C 144.008 222.004,144.727 220.180,144.727 220.089 C 144.727 219.638,137.109 219.904,136.914 220.361 C 136.709 220.846,133.470 229.254,131.253 235.059 C 130.104 238.068,127.103 245.888,125.904 248.998 L 125.650 249.656 124.749 247.338 C 124.254 246.063,122.798 242.251,121.514 238.867 C 119.592 233.802,116.789 226.532,114.605 220.947 L 114.204 219.922 110.227 219.922 C 108.040 219.922,106.250 219.957,106.250 220.000 M156.828 223.482 C 156.785 241.602,156.840 258.663,156.940 258.763 C 157.007 258.831,158.639 258.914,160.564 258.948 L 164.066 259.009 164.015 239.514 L 163.965 220.020 160.400 219.966 L 156.836 219.913 156.828 223.482 M193.190 220.264 C 192.174 222.165,176.758 258.289,176.758 258.770 C 176.758 258.931,177.823 258.978,180.597 258.940 L 184.436 258.887 186.038 254.911 C 186.919 252.725,187.762 250.856,187.912 250.759 C 188.061 250.661,189.748 250.593,191.660 250.607 C 193.572 250.621,195.172 250.596,195.216 250.552 C 195.339 250.430,191.251 244.475,190.815 244.141 C 190.443 243.855,190.467 243.763,191.785 240.527 C 194.890 232.905,196.683 228.630,196.842 228.471 C 196.937 228.375,198.040 230.837,199.372 234.121 C 200.670 237.322,202.127 240.878,202.609 242.023 C 203.091 243.169,203.438 244.153,203.380 244.212 C 203.321 244.270,201.350 244.264,199.000 244.198 C 196.059 244.116,194.727 244.143,194.727 244.285 C 194.727 244.398,195.567 245.860,196.595 247.534 L 198.463 250.578 202.290 250.631 L 206.117 250.684 207.544 254.199 C 208.328 256.133,209.104 258.000,209.267 258.350 L 209.564 258.984 213.376 258.984 C 216.325 258.984,217.188 258.928,217.188 258.737 C 217.188 258.600,215.798 255.238,214.099 251.266 C 212.400 247.293,208.693 238.616,205.860 231.982 L 200.710 219.922 197.042 219.922 C 193.748 219.922,193.354 219.957,193.190 220.264 M227.734 223.140 L 227.734 226.362 234.717 226.414 L 241.699 226.465 241.751 237.109 C 241.811 249.467,241.798 249.577,240.140 251.236 C 237.564 253.811,232.390 253.099,229.415 249.759 L 228.327 248.537 226.517 250.312 C 225.521 251.288,224.470 252.263,224.181 252.479 L 223.655 252.871 224.302 253.828 C 229.690 261.809,243.535 261.241,247.547 252.874 C 249.008 249.828,249.033 249.497,248.976 233.851 L 248.926 220.020 238.330 219.969 L 227.734 219.919 227.734 223.140 M264.063 239.355 L 264.063 258.789 278.516 258.789 L 292.969 258.789 292.969 255.566 L 292.969 252.344 282.129 252.344 L 271.289 252.344 271.289 247.559 L 271.289 242.773 280.355 242.773 C 285.341 242.773,289.560 242.720,289.730 242.655 C 289.993 242.554,290.039 242.091,290.039 239.530 L 290.039 236.523 282.666 236.475 C 272.303 236.406,272.012 236.403,271.631 236.364 C 271.315 236.331,271.289 235.952,271.289 231.445 L 271.289 226.563 281.934 226.563 L 292.578 226.563 292.578 223.242 L 292.578 219.922 278.320 219.922 L 264.063 219.922 264.063 239.355 M214.205 275.727 C 214.551 275.770,215.167 275.771,215.572 275.728 C 215.977 275.686,215.693 275.651,214.941 275.650 C 214.189 275.649,213.858 275.684,214.205 275.727 M228.762 275.726 C 229.059 275.771,229.499 275.770,229.739 275.723 C 229.979 275.677,229.736 275.640,229.199 275.642 C 228.662 275.643,228.466 275.681,228.762 275.726 M268.448 286.133 C 268.448 290.161,268.474 291.809,268.506 289.795 C 268.537 287.781,268.537 284.485,268.506 282.471 C 268.474 280.457,268.448 282.104,268.448 286.133 M230.811 287.443 C 231.052 287.489,231.448 287.489,231.689 287.443 C 231.931 287.396,231.733 287.358,231.250 287.358 C 230.767 287.358,230.569 287.396,230.811 287.443 M143.799 290.174 C 143.987 290.223,144.294 290.223,144.482 290.174 C 144.670 290.125,144.517 290.084,144.141 290.084 C 143.765 290.084,143.611 290.125,143.799 290.174 M150.337 290.180 C 150.684 290.223,151.299 290.224,151.705 290.182 C 152.110 290.139,151.826 290.104,151.074 290.103 C 150.322 290.102,149.991 290.137,150.337 290.180 " stroke="none" fill="#1d89c0" fill-rule="evenodd"></path><path id="path1" d="M0.000 200.000 L 0.000 400.000 200.000 400.000 L 400.000 400.000 400.000 200.000 L 400.000 0.000 200.000 0.000 L 0.000 0.000 0.000 200.000 M215.627 107.061 C 216.547 107.601,217.344 108.746,217.568 109.848 L 217.691 110.449 221.101 110.575 C 229.348 110.880,233.262 114.639,233.575 122.559 L 233.691 125.488 236.035 125.596 C 240.238 125.790,241.406 126.983,241.406 131.080 L 241.406 133.000 241.943 133.129 C 244.091 133.644,244.141 133.826,244.141 141.117 C 244.141 149.070,244.167 149.021,239.883 149.023 C 235.583 149.024,235.557 148.977,235.551 141.187 C 235.546 134.181,235.678 133.597,237.344 133.264 L 237.891 133.154 237.891 131.232 C 237.891 128.849,237.855 128.819,235.342 129.015 L 233.599 129.152 233.548 155.933 L 233.496 182.715 232.866 184.002 C 231.865 186.047,230.023 187.555,227.858 188.100 L 226.953 188.328 226.953 190.601 C 226.953 191.851,226.867 193.175,226.761 193.543 C 226.512 194.413,226.148 194.320,230.686 194.544 C 238.330 194.920,242.383 195.420,242.383 195.986 C 242.383 197.830,185.873 198.547,165.527 196.961 C 155.418 196.173,157.582 195.212,170.975 194.540 C 175.410 194.317,175.050 194.411,174.801 193.543 C 174.696 193.175,174.609 191.848,174.609 190.595 L 174.609 188.316 173.823 188.183 C 171.718 187.827,169.654 186.193,168.522 183.984 L 167.871 182.715 167.773 155.957 L 167.676 129.199 165.878 129.143 C 164.161 129.090,164.067 129.108,163.770 129.562 C 163.354 130.197,163.427 132.800,163.867 133.007 C 166.073 134.042,166.015 133.825,166.015 141.113 C 166.014 149.078,165.991 149.121,161.719 149.121 C 159.272 149.121,158.699 148.935,157.910 147.884 C 157.364 147.157,157.196 135.379,157.717 134.372 C 158.042 133.742,159.053 133.010,159.598 133.009 C 159.872 133.008,159.929 132.689,159.989 130.811 C 160.120 126.747,161.395 125.589,165.745 125.587 L 167.720 125.586 167.830 122.705 C 168.137 114.679,172.066 110.833,180.239 110.562 L 183.622 110.449 183.972 109.413 C 184.360 108.264,185.098 107.380,186.133 106.824 C 186.786 106.473,187.440 106.459,200.781 106.500 L 214.746 106.543 215.627 107.061 M186.112 115.917 C 184.399 116.848,184.469 119.957,186.222 120.781 C 187.252 121.265,214.754 121.319,215.462 120.838 C 216.930 119.842,216.965 117.181,215.525 116.048 L 214.986 115.625 200.804 115.633 C 188.948 115.639,186.538 115.686,186.112 115.917 M175.412 124.707 C 174.384 125.028,173.138 126.170,172.637 127.246 C 172.181 128.228,172.058 155.989,172.503 157.497 C 172.820 158.570,174.438 160.188,175.511 160.505 C 176.111 160.682,180.073 160.742,191.150 160.742 L 205.986 160.742 206.210 159.535 C 207.508 152.558,216.373 150.034,221.330 155.231 C 222.817 156.790,223.153 157.488,223.723 160.205 C 223.944 161.257,226.179 160.854,227.689 159.490 C 229.388 157.955,229.311 158.806,229.252 142.225 L 229.199 127.606 228.608 126.650 C 228.242 126.057,227.653 125.469,227.061 125.103 L 226.105 124.512 201.187 124.475 C 180.508 124.444,176.124 124.484,175.412 124.707 M190.172 126.416 C 191.000 126.980,191.674 126.182,184.433 133.203 C 177.698 139.733,177.685 139.743,176.955 138.967 L 176.483 138.464 177.255 137.716 C 177.680 137.304,180.554 134.494,183.641 131.472 C 186.729 128.449,189.316 125.977,189.391 125.977 C 189.465 125.977,189.817 126.174,190.172 126.416 M192.398 129.806 L 192.871 130.316 184.473 138.588 C 179.854 143.139,175.992 146.864,175.891 146.868 C 175.633 146.878,174.805 146.069,174.805 145.808 C 174.805 145.688,177.365 143.088,180.493 140.031 C 192.849 127.957,191.643 128.994,192.398 129.806 M199.692 131.516 L 200.090 132.050 192.786 139.218 C 184.813 147.043,185.308 146.645,184.635 145.773 L 184.162 145.159 191.539 138.007 C 195.596 134.074,199.001 130.884,199.104 130.919 C 199.208 130.953,199.472 131.222,199.692 131.516 M213.086 155.261 C 210.867 155.938,208.612 158.422,208.598 160.205 L 208.594 160.742 214.865 160.742 L 221.137 160.742 221.002 160.021 C 220.372 156.664,216.371 154.258,213.086 155.261 M223.210 169.988 C 219.213 171.478,219.365 177.386,223.431 178.593 C 228.257 180.027,231.250 173.114,226.948 170.469 C 225.876 169.810,224.249 169.601,223.210 169.988 M175.391 170.233 C 173.155 171.202,172.085 174.136,173.190 176.270 C 175.361 180.459,181.445 178.910,181.445 174.168 C 181.445 171.228,178.105 169.058,175.391 170.233 M197.656 171.287 L 186.230 171.387 186.167 171.837 C 186.017 172.894,185.402 172.852,200.980 172.852 C 216.708 172.852,215.625 172.931,215.625 171.782 C 215.625 171.138,215.349 171.088,212.045 171.140 C 210.415 171.166,203.940 171.232,197.656 171.287 M187.744 174.739 C 187.360 174.894,187.457 175.365,187.979 175.888 L 188.459 176.367 200.919 176.364 C 207.772 176.363,213.476 176.297,213.594 176.218 C 213.944 175.984,214.296 175.186,214.181 174.887 C 214.076 174.613,188.414 174.469,187.744 174.739 M189.990 178.259 C 189.532 178.380,189.559 178.585,190.120 179.237 L 190.591 179.785 200.864 179.841 L 211.137 179.896 211.637 179.397 C 212.841 178.193,213.125 178.225,201.169 178.196 C 195.209 178.181,190.178 178.209,189.990 178.259 M186.037 188.525 C 185.990 188.660,185.927 189.963,185.896 191.421 L 185.840 194.072 200.832 194.058 C 213.232 194.046,215.807 193.998,215.725 193.783 C 215.670 193.640,215.625 192.343,215.625 190.902 L 215.625 188.281 200.873 188.281 C 189.246 188.281,186.103 188.333,186.037 188.525 M292.716 219.802 C 292.799 219.879,292.815 226.586,292.732 226.669 C 292.684 226.717,288.044 226.762,282.421 226.768 C 276.157 226.776,272.060 226.854,271.841 226.971 C 271.512 227.148,271.484 227.503,271.484 231.647 L 271.484 236.133 277.002 236.138 C 284.405 236.146,289.971 236.263,290.218 236.416 C 290.479 236.577,290.387 242.504,290.119 242.772 C 289.999 242.892,286.458 242.984,280.754 243.016 L 271.582 243.066 271.582 247.559 L 271.582 252.051 282.324 252.148 L 293.066 252.246 293.120 255.615 L 293.173 258.984 280.815 259.017 C 274.018 259.035,268.193 259.043,267.871 259.036 C 267.549 259.029,266.516 259.014,265.576 259.004 L 263.867 258.984 263.867 239.372 C 263.867 225.336,263.928 219.739,264.081 219.688 C 264.292 219.618,292.638 219.731,292.716 219.802 M114.394 219.971 C 114.496 220.105,115.074 221.489,115.679 223.047 C 117.940 228.864,120.535 235.623,122.653 241.211 C 125.261 248.092,125.544 248.758,125.758 248.521 C 125.848 248.421,126.320 247.285,126.808 245.996 C 130.229 236.944,135.374 223.589,136.457 220.947 L 136.958 219.727 141.038 219.727 C 143.281 219.727,145.117 219.772,145.117 219.828 C 145.117 219.883,144.097 222.410,142.850 225.443 C 141.603 228.476,138.080 237.197,135.020 244.824 C 131.960 252.451,129.410 258.803,129.354 258.940 C 129.275 259.131,128.375 259.176,125.417 259.135 L 121.582 259.082 119.174 253.027 C 117.850 249.697,114.917 242.358,112.656 236.719 C 107.303 223.365,106.055 220.192,106.055 219.937 C 106.055 219.615,114.151 219.648,114.394 219.971 M164.160 239.453 L 164.160 259.082 160.614 259.135 C 157.579 259.181,157.023 259.143,156.756 258.877 C 156.449 258.569,156.289 222.654,156.585 220.455 L 156.684 219.718 160.422 219.771 L 164.160 219.824 164.160 239.453 M201.758 221.729 C 202.215 222.830,204.388 227.949,206.588 233.105 C 219.054 262.329,217.668 258.915,217.125 259.060 C 215.077 259.609,208.984 259.090,208.984 258.366 C 208.984 258.274,208.819 257.826,208.617 257.371 C 208.212 256.459,207.135 253.838,206.459 252.118 C 205.922 250.754,206.041 250.787,201.795 250.814 C 199.935 250.825,198.342 250.756,198.255 250.661 C 197.762 250.118,194.531 244.603,194.531 244.304 C 194.531 243.967,194.791 243.945,198.827 243.945 L 203.123 243.945 202.755 243.018 C 202.552 242.507,201.710 240.464,200.884 238.477 C 200.058 236.489,198.894 233.633,198.296 232.129 C 197.190 229.347,196.977 228.935,196.759 229.153 C 196.644 229.267,195.533 231.936,192.175 240.161 L 190.809 243.506 192.930 246.607 C 195.303 250.075,195.596 250.563,195.410 250.749 C 195.339 250.821,193.612 250.923,191.572 250.977 L 187.863 251.074 186.318 254.859 C 184.339 259.705,185.052 259.180,180.456 259.180 C 175.975 259.180,176.208 259.307,177.029 257.313 C 180.336 249.277,192.627 220.637,193.097 219.873 C 193.147 219.792,194.929 219.727,197.058 219.727 L 200.928 219.727 201.758 221.729 M249.121 234.375 C 249.121 251.662,249.112 251.732,246.286 255.240 C 241.152 261.612,229.466 261.105,224.342 254.289 C 223.225 252.803,223.201 252.993,224.658 251.758 C 225.330 251.189,226.435 250.157,227.114 249.465 L 228.349 248.207 229.453 249.427 C 232.835 253.164,238.250 253.683,240.468 250.484 C 241.552 248.919,241.602 248.339,241.602 237.161 L 241.602 226.943 241.078 226.745 C 240.760 226.624,238.178 226.553,234.487 226.563 C 231.149 226.573,228.220 226.577,227.979 226.572 C 227.540 226.563,227.539 226.556,227.539 223.143 L 227.539 219.723 238.330 219.774 L 249.121 219.824 249.121 234.375 M230.790 270.486 C 231.204 270.597,231.871 270.757,232.271 270.842 L 232.999 270.996 231.413 272.607 C 230.372 273.665,229.679 274.219,229.394 274.219 C 229.156 274.219,228.540 274.276,228.025 274.347 L 227.090 274.475 227.617 273.615 C 227.907 273.141,228.452 272.153,228.829 271.419 C 229.277 270.545,229.604 270.118,229.776 270.184 C 229.920 270.239,230.376 270.375,230.790 270.486 M181.306 275.395 C 182.744 275.603,185.364 276.545,186.110 277.122 L 186.576 277.483 185.937 278.780 C 185.585 279.494,185.264 280.078,185.222 280.078 C 185.179 280.078,184.621 279.813,183.980 279.490 C 180.136 277.550,176.758 278.104,176.758 280.674 C 176.758 281.832,177.672 282.453,180.865 283.465 C 185.596 284.965,186.864 286.069,187.064 288.864 C 187.498 294.936,178.854 297.013,173.081 292.224 L 172.431 291.685 173.110 290.676 C 173.484 290.121,173.831 289.553,173.881 289.413 C 173.982 289.135,173.914 289.101,175.608 290.288 C 178.996 292.662,183.594 292.155,183.594 289.407 C 183.594 288.086,182.792 287.494,179.676 286.516 C 174.900 285.017,173.741 284.025,173.487 281.220 C 173.175 277.776,175.384 275.673,179.785 275.223 C 179.893 275.212,180.577 275.289,181.306 275.395 M254.804 275.600 C 256.379 275.934,258.835 277.314,259.105 278.016 C 259.201 278.267,257.959 280.104,257.602 280.239 C 257.510 280.273,257.059 280.045,256.599 279.732 C 251.653 276.364,245.582 279.369,245.637 285.156 C 245.693 290.953,251.822 293.813,256.691 290.314 L 257.699 289.590 258.639 290.645 L 259.580 291.699 258.745 292.430 C 251.811 298.504,241.074 292.807,242.355 283.734 C 243.202 277.738,248.517 274.265,254.804 275.600 M119.560 281.738 C 121.166 285.067,122.543 287.856,122.621 287.934 C 122.758 288.070,124.656 284.190,127.300 278.369 L 128.565 275.586 130.593 275.586 L 132.621 275.586 132.570 285.107 L 132.520 294.629 130.957 294.629 L 129.395 294.629 129.446 287.793 C 129.487 282.259,129.451 281.050,129.256 281.445 C 128.749 282.470,125.419 289.437,124.611 291.162 L 123.765 292.969 122.708 292.969 L 121.651 292.969 118.750 287.061 L 115.849 281.152 115.786 287.891 L 115.723 294.629 114.160 294.629 L 112.598 294.629 112.547 285.352 C 112.519 280.249,112.539 275.961,112.592 275.823 C 112.664 275.636,113.193 275.586,114.664 275.628 L 116.640 275.684 119.560 281.738 M150.446 278.076 C 155.834 290.524,157.422 294.233,157.422 294.371 C 157.422 294.459,156.642 294.531,155.688 294.531 L 153.955 294.531 153.116 292.383 L 152.278 290.234 150.114 290.233 L 147.949 290.232 147.021 288.881 C 145.753 287.034,145.688 287.101,148.632 287.227 L 151.170 287.335 150.465 285.709 C 150.077 284.814,149.320 283.046,148.781 281.779 C 148.243 280.512,147.777 279.502,147.746 279.533 C 147.681 279.599,146.266 282.910,145.228 285.426 L 144.512 287.161 145.495 288.649 L 146.479 290.137 144.852 290.193 L 143.224 290.249 142.479 292.243 C 141.494 294.880,141.663 294.733,139.777 294.594 C 138.901 294.530,138.156 294.454,138.123 294.427 C 138.065 294.380,138.857 292.531,142.136 285.059 C 145.063 278.389,146.094 275.973,146.094 275.782 C 146.094 275.666,146.767 275.586,147.731 275.586 L 149.368 275.586 150.446 278.076 M166.211 285.059 L 166.211 294.531 164.551 294.531 L 162.891 294.531 162.891 285.059 L 162.891 275.586 164.551 275.586 L 166.211 275.586 166.211 285.059 M216.757 277.002 L 216.699 278.418 211.475 278.470 L 206.250 278.522 206.250 281.058 L 206.250 283.594 210.938 283.594 L 215.625 283.594 215.625 285.156 L 215.625 286.719 210.942 286.719 L 206.258 286.719 206.205 290.674 L 206.152 294.629 204.541 294.686 L 202.930 294.742 202.930 285.164 L 202.930 275.586 209.872 275.586 L 216.814 275.586 216.757 277.002 M232.267 280.176 C 235.561 287.812,238.281 294.299,238.281 294.518 C 238.281 294.650,237.671 294.727,236.626 294.727 C 234.709 294.727,234.852 294.865,233.864 292.042 L 233.301 290.431 231.228 290.430 L 229.155 290.430 228.155 288.916 L 227.155 287.402 229.495 287.348 C 230.783 287.317,231.836 287.240,231.836 287.176 C 231.836 286.903,228.803 279.688,228.688 279.688 C 228.569 279.688,226.329 284.818,225.783 286.342 C 225.538 287.024,225.554 287.069,226.573 288.534 C 227.798 290.296,227.806 290.280,225.699 290.391 L 224.060 290.477 223.238 292.611 L 222.417 294.745 220.681 294.701 C 219.726 294.676,218.945 294.632,218.945 294.602 C 218.945 294.544,224.299 282.094,225.959 278.290 C 226.506 277.038,226.953 275.914,226.953 275.792 C 226.953 275.640,227.479 275.588,228.641 275.627 L 230.329 275.684 232.267 280.176 M268.555 285.164 L 268.555 294.742 266.943 294.686 L 265.332 294.629 265.281 285.352 C 265.253 280.249,265.272 275.964,265.324 275.830 C 265.388 275.663,265.911 275.586,266.986 275.586 L 268.555 275.586 268.555 285.164 M279.688 283.594 L 279.688 291.602 284.570 291.602 L 289.453 291.602 289.453 293.061 L 289.453 294.521 283.057 294.575 C 279.539 294.605,276.594 294.602,276.514 294.569 C 276.433 294.535,276.367 290.251,276.367 285.047 L 276.367 275.586 278.027 275.586 L 279.688 275.586 279.688 283.594 " stroke="none" fill="#fbfbfb" fill-rule="evenodd"></path><path id="path2" d="M183.008 132.233 L 176.661 138.468 177.194 139.002 L 177.728 139.535 180.026 137.302 C 181.290 136.074,184.187 133.234,186.464 130.992 L 190.603 126.915 190.077 126.452 C 189.788 126.197,189.507 125.991,189.453 125.993 C 189.399 125.996,186.499 128.803,183.008 132.233 M186.133 134.698 C 183.071 137.664,179.267 141.372,177.680 142.937 L 174.793 145.782 175.336 146.317 L 175.879 146.851 184.347 138.514 L 192.815 130.176 192.342 129.736 C 192.082 129.495,191.831 129.299,191.784 129.301 C 191.737 129.303,189.194 131.731,186.133 134.698 M191.631 138.097 C 187.640 141.970,184.375 145.207,184.375 145.290 C 184.375 145.372,184.591 145.643,184.855 145.890 L 185.335 146.341 192.570 139.250 C 196.549 135.350,199.805 132.056,199.805 131.930 C 199.805 131.708,199.195 131.055,198.988 131.055 C 198.932 131.055,195.621 134.224,191.631 138.097 M212.490 152.896 C 209.295 153.730,206.629 156.734,206.306 159.863 L 206.193 160.960 207.226 160.900 L 208.259 160.840 208.485 159.947 C 210.186 153.220,219.925 153.418,221.195 160.205 L 221.333 160.938 222.483 160.938 C 223.778 160.938,223.760 160.969,223.413 159.336 C 222.390 154.518,217.444 151.602,212.490 152.896 M174.805 190.710 C 174.805 192.153,174.895 193.572,175.005 193.862 C 175.264 194.543,175.732 194.453,170.605 194.709 C 160.068 195.237,156.758 195.892,161.719 196.468 C 177.647 198.317,242.188 197.864,242.188 195.903 C 242.188 195.526,237.832 195.059,230.998 194.704 C 226.897 194.490,226.369 194.426,226.494 194.155 C 226.572 193.986,226.671 192.550,226.715 190.964 L 226.794 188.080 221.258 188.132 L 215.723 188.184 215.668 190.489 C 215.637 191.757,215.696 193.097,215.798 193.468 L 215.984 194.141 201.156 194.173 C 193.001 194.191,186.174 194.213,185.986 194.222 C 185.770 194.232,185.676 194.130,185.731 193.945 C 185.778 193.784,185.853 192.400,185.896 190.869 L 185.974 188.086 180.389 188.086 L 174.805 188.086 174.805 190.710 M229.248 270.976 C 229.068 271.355,228.563 272.251,228.128 272.969 L 227.335 274.273 228.610 274.171 L 229.885 274.068 231.202 272.652 C 231.927 271.872,232.542 271.179,232.570 271.112 C 232.597 271.044,232.114 270.885,231.495 270.759 C 230.877 270.633,230.192 270.475,229.973 270.409 C 229.657 270.313,229.509 270.430,229.248 270.976 M177.832 275.664 C 175.046 276.349,173.639 278.044,173.635 280.719 C 173.630 283.729,174.816 284.875,179.413 286.309 C 183.039 287.440,183.904 288.124,183.716 289.712 C 183.371 292.613,178.339 292.730,174.871 289.919 L 174.059 289.261 173.407 290.382 C 173.048 290.999,172.729 291.558,172.698 291.624 C 172.666 291.691,173.240 292.154,173.971 292.654 C 179.711 296.576,186.958 294.665,186.969 289.226 C 186.975 286.356,185.624 285.108,180.879 283.600 C 177.226 282.439,176.355 281.735,176.647 280.179 C 177.086 277.840,180.825 277.521,184.382 279.520 C 184.805 279.758,185.183 279.915,185.220 279.869 C 185.258 279.823,185.560 279.277,185.890 278.656 L 186.492 277.528 186.068 277.251 C 183.756 275.742,180.257 275.068,177.832 275.664 M249.805 275.697 C 241.160 277.569,239.592 289.758,247.497 293.636 C 251.226 295.465,255.620 294.983,258.565 292.422 L 259.396 291.699 258.535 290.727 L 257.673 289.755 256.959 290.300 C 253.193 293.172,248.178 292.247,246.248 288.325 C 242.945 281.609,250.355 275.360,256.621 279.577 L 257.564 280.211 258.375 279.162 L 259.187 278.113 258.646 277.638 C 256.522 275.775,253.006 275.003,249.805 275.697 M209.717 275.732 L 203.125 275.786 203.125 285.159 L 203.125 294.531 204.590 294.531 L 206.055 294.531 206.055 290.527 L 206.055 286.523 210.742 286.523 L 215.430 286.523 215.430 285.156 L 215.430 283.789 210.742 283.789 L 206.055 283.789 206.055 281.055 L 206.055 278.320 211.328 278.320 L 216.602 278.320 216.602 276.953 C 216.602 276.201,216.536 275.607,216.455 275.632 C 216.375 275.657,213.342 275.703,209.717 275.732 M226.133 278.157 C 225.522 279.590,223.698 283.830,222.081 287.579 C 220.464 291.329,219.141 294.427,219.141 294.464 C 219.141 294.501,219.867 294.531,220.756 294.531 L 222.371 294.531 223.153 292.432 L 223.934 290.332 225.639 290.276 C 227.644 290.209,227.609 290.298,226.358 288.483 C 225.469 287.192,225.392 286.996,225.570 286.485 C 226.022 285.190,228.581 279.297,228.690 279.301 C 228.794 279.305,231.702 286.264,231.973 287.158 C 232.069 287.474,231.905 287.490,229.710 287.372 C 228.409 287.302,227.344 287.303,227.344 287.375 C 227.344 287.446,227.752 288.119,228.251 288.870 L 229.159 290.234 231.248 290.234 L 233.338 290.234 234.117 292.334 L 234.896 294.434 236.570 294.490 L 238.243 294.546 236.443 290.291 C 235.453 287.950,233.648 283.728,232.431 280.908 L 230.218 275.781 229.589 275.781 C 229.244 275.781,228.575 275.730,228.103 275.667 L 227.246 275.552 226.133 278.157 M112.695 285.156 L 112.695 294.531 114.160 294.531 L 115.625 294.531 115.625 287.559 C 115.625 283.724,115.697 280.669,115.785 280.771 C 115.873 280.874,117.257 283.661,118.861 286.966 L 121.777 292.975 122.712 292.923 L 123.646 292.871 126.520 286.852 L 129.395 280.833 129.446 287.682 L 129.497 294.531 130.960 294.531 L 132.422 294.531 132.422 285.156 L 132.422 275.781 130.518 275.787 L 128.613 275.792 127.163 278.948 C 124.464 284.823,122.847 288.183,122.696 288.235 C 122.613 288.263,121.196 285.472,119.548 282.034 L 116.550 275.781 114.623 275.781 L 112.695 275.781 112.695 285.156 M146.109 276.221 C 145.799 277.020,144.043 281.066,141.143 287.661 C 139.569 291.241,138.281 294.251,138.281 294.350 C 138.281 294.450,139.006 294.530,139.893 294.529 L 141.504 294.527 142.280 292.392 C 143.146 290.008,143.101 290.046,145.074 290.042 L 146.301 290.039 145.330 288.600 L 144.359 287.161 145.206 285.133 C 147.301 280.119,147.626 279.397,147.768 279.429 C 147.910 279.462,151.159 286.847,151.168 287.158 C 151.170 287.239,150.073 287.305,148.730 287.305 C 147.388 287.305,146.289 287.370,146.289 287.449 C 146.289 287.528,146.663 288.139,147.119 288.807 L 147.949 290.021 150.170 290.079 L 152.391 290.137 153.218 292.285 L 154.045 294.434 155.659 294.491 C 157.647 294.561,157.841 295.485,154.001 286.621 C 152.325 282.754,150.590 278.733,150.144 277.686 L 149.335 275.781 147.807 275.781 C 146.404 275.781,146.266 275.817,146.109 276.221 M163.086 285.156 L 163.086 294.531 164.551 294.531 L 166.016 294.531 166.016 285.156 L 166.016 275.781 164.551 275.781 L 163.086 275.781 163.086 285.156 M265.430 285.156 L 265.430 294.531 267.019 294.531 L 268.608 294.531 268.484 293.625 C 268.415 293.127,268.359 288.908,268.359 284.250 L 268.359 275.781 266.895 275.781 L 265.430 275.781 265.430 285.156 M276.563 285.156 L 276.563 294.531 282.910 294.531 L 289.258 294.531 289.258 293.164 L 289.258 291.797 284.375 291.797 L 279.492 291.797 279.492 283.789 L 279.492 275.781 278.027 275.781 L 276.563 275.781 276.563 285.156 " stroke="none" fill="#151a2f" fill-rule="evenodd"></path><path id="path3" d="M218.709 110.692 C 219.384 110.730,220.439 110.730,221.053 110.691 C 221.666 110.652,221.113 110.621,219.824 110.621 C 218.535 110.622,218.033 110.653,218.709 110.692 M230.078 113.965 C 230.662 114.556,231.183 115.039,231.237 115.039 C 231.290 115.039,230.857 114.556,230.273 113.965 C 229.690 113.374,229.169 112.891,229.115 112.891 C 229.061 112.891,229.495 113.374,230.078 113.965 M188.037 115.378 C 188.601 115.418,189.524 115.418,190.088 115.378 C 190.652 115.339,190.190 115.307,189.063 115.307 C 187.935 115.307,187.473 115.339,188.037 115.378 M184.626 118.262 C 184.628 118.799,184.666 118.995,184.710 118.698 C 184.755 118.402,184.754 117.962,184.708 117.722 C 184.661 117.482,184.625 117.725,184.626 118.262 M216.651 118.457 C 216.653 118.887,216.693 119.040,216.740 118.797 C 216.786 118.554,216.785 118.202,216.736 118.015 C 216.687 117.829,216.649 118.027,216.651 118.457 M168.018 120.996 C 168.020 121.426,168.060 121.579,168.107 121.336 C 168.154 121.093,168.152 120.741,168.103 120.554 C 168.054 120.368,168.016 120.566,168.018 120.996 M199.953 121.427 C 200.196 121.474,200.548 121.472,200.735 121.423 C 200.921 121.374,200.723 121.336,200.293 121.338 C 199.863 121.340,199.710 121.380,199.953 121.427 M204.443 121.435 C 206.296 121.467,209.329 121.467,211.182 121.435 C 213.035 121.403,211.519 121.377,207.813 121.377 C 204.106 121.377,202.590 121.403,204.443 121.435 M233.440 123.486 L 233.398 125.781 234.521 125.745 L 235.645 125.709 234.625 125.637 L 233.606 125.566 233.544 123.379 L 233.482 121.191 233.440 123.486 M164.314 125.926 C 164.935 125.965,165.902 125.964,166.462 125.925 C 167.022 125.886,166.514 125.854,165.332 125.854 C 164.150 125.855,163.692 125.887,164.314 125.926 M171.968 142.480 C 171.968 150.107,171.992 153.256,172.021 149.477 C 172.051 145.699,172.051 139.458,172.021 135.610 C 171.992 131.762,171.968 134.854,171.968 142.480 M233.493 155.273 C 233.493 169.829,233.517 175.784,233.545 168.506 C 233.573 161.228,233.573 149.319,233.545 142.041 C 233.517 134.763,233.493 140.718,233.493 155.273 M190.039 130.762 C 189.239 131.567,188.628 132.227,188.682 132.227 C 188.735 132.227,189.434 131.567,190.234 130.762 C 191.035 129.956,191.645 129.297,191.592 129.297 C 191.538 129.297,190.839 129.956,190.039 130.762 M241.282 131.152 C 241.283 132.227,241.316 132.641,241.355 132.074 C 241.395 131.506,241.394 130.627,241.354 130.120 C 241.314 129.614,241.282 130.078,241.282 131.152 M163.353 131.348 C 163.353 132.422,163.386 132.836,163.425 132.269 C 163.465 131.701,163.465 130.822,163.425 130.316 C 163.384 129.809,163.352 130.273,163.353 131.348 M186.129 131.396 L 184.277 133.301 186.182 131.449 C 187.950 129.729,188.175 129.492,188.033 129.492 C 188.004 129.492,187.147 130.349,186.129 131.396 M183.199 131.982 L 181.543 133.691 183.252 132.036 C 184.839 130.498,185.050 130.273,184.908 130.273 C 184.879 130.273,184.110 131.042,183.199 131.982 M191.011 131.982 L 189.355 133.691 191.064 132.036 C 192.652 130.498,192.862 130.273,192.720 130.273 C 192.691 130.273,191.922 131.042,191.011 131.982 M198.135 131.689 L 197.363 132.520 198.193 131.747 C 198.965 131.029,199.113 130.859,198.965 130.859 C 198.934 130.859,198.560 131.233,198.135 131.689 M198.140 133.838 L 196.387 135.645 198.193 133.891 C 199.187 132.926,200.000 132.113,200.000 132.084 C 200.000 131.942,199.769 132.160,198.140 133.838 M188.079 134.912 L 187.012 136.035 188.135 134.968 C 189.178 133.976,189.347 133.789,189.202 133.789 C 189.172 133.789,188.666 134.294,188.079 134.912 M193.256 136.377 L 192.090 137.598 193.311 136.432 C 193.982 135.791,194.531 135.241,194.531 135.211 C 194.531 135.067,194.338 135.243,193.256 136.377 M244.032 141.016 C 244.032 144.292,244.059 145.632,244.091 143.994 C 244.124 142.356,244.124 139.675,244.091 138.037 C 244.059 136.399,244.032 137.739,244.032 141.016 M179.879 137.451 L 178.223 139.160 179.932 137.504 C 181.519 135.966,181.730 135.742,181.587 135.742 C 181.558 135.742,180.789 136.511,179.879 137.451 M183.101 137.549 L 181.348 139.355 183.154 137.602 C 184.148 136.637,184.961 135.824,184.961 135.795 C 184.961 135.653,184.730 135.871,183.101 137.549 M157.471 136.621 C 157.473 137.051,157.513 137.204,157.560 136.961 C 157.607 136.718,157.605 136.366,157.556 136.179 C 157.507 135.993,157.469 136.191,157.471 136.621 M177.820 137.158 L 177.246 137.793 177.881 137.219 C 178.230 136.904,178.516 136.618,178.516 136.585 C 178.516 136.434,178.354 136.567,177.820 137.158 M189.256 142.529 L 185.645 146.191 189.307 142.580 C 191.321 140.594,192.969 138.946,192.969 138.918 C 192.969 138.779,192.611 139.127,189.256 142.529 M186.226 143.213 L 184.473 145.020 186.279 143.266 C 187.273 142.301,188.086 141.488,188.086 141.459 C 188.086 141.317,187.855 141.535,186.226 143.213 M179.097 143.701 L 177.441 145.410 179.150 143.754 C 180.738 142.216,180.948 141.992,180.806 141.992 C 180.777 141.992,180.008 142.761,179.097 143.701 M176.362 144.092 L 175.098 145.410 176.416 144.146 C 177.641 142.972,177.824 142.773,177.680 142.773 C 177.650 142.773,177.057 143.367,176.362 144.092 M160.798 148.973 C 161.420 149.012,162.387 149.011,162.947 148.972 C 163.507 148.933,162.998 148.901,161.816 148.901 C 160.635 148.902,160.177 148.934,160.798 148.973 M208.484 155.127 L 207.910 155.762 208.545 155.188 C 209.137 154.653,209.269 154.492,209.119 154.492 C 209.085 154.492,208.799 154.778,208.484 155.127 M214.309 155.023 C 214.606 155.068,215.046 155.067,215.286 155.020 C 215.526 154.974,215.283 154.937,214.746 154.939 C 214.209 154.940,214.012 154.978,214.309 155.023 M210.242 156.885 L 209.668 157.520 210.303 156.946 C 210.894 156.411,211.027 156.250,210.876 156.250 C 210.843 156.250,210.557 156.536,210.242 156.885 M218.750 156.311 C 218.750 156.345,219.036 156.630,219.385 156.946 L 220.020 157.520 219.446 156.885 C 218.911 156.293,218.750 156.160,218.750 156.311 M173.438 159.473 C 173.802 159.849,174.144 160.156,174.198 160.156 C 174.251 160.156,173.997 159.849,173.633 159.473 C 173.268 159.097,172.926 158.789,172.873 158.789 C 172.819 158.789,173.073 159.097,173.438 159.473 M224.268 169.666 C 224.456 169.715,224.763 169.715,224.951 169.666 C 225.139 169.617,224.985 169.577,224.609 169.577 C 224.233 169.577,224.080 169.617,224.268 169.666 M172.517 174.316 C 172.518 174.854,172.556 175.050,172.601 174.753 C 172.646 174.456,172.645 174.017,172.598 173.777 C 172.552 173.536,172.515 173.779,172.517 174.316 M188.623 174.559 C 189.294 174.597,190.393 174.597,191.064 174.559 C 191.736 174.521,191.187 174.489,189.844 174.489 C 188.501 174.489,187.952 174.521,188.623 174.559 M213.330 174.549 C 213.518 174.598,213.826 174.598,214.014 174.549 C 214.202 174.500,214.048 174.459,213.672 174.459 C 213.296 174.459,213.142 174.500,213.330 174.549 M203.967 176.513 C 205.774 176.546,208.674 176.546,210.413 176.513 C 212.152 176.481,210.674 176.455,207.129 176.455 C 203.584 176.455,202.161 176.481,203.967 176.513 M195.850 180.029 C 198.669 180.060,203.284 180.060,206.104 180.029 C 208.923 179.999,206.616 179.974,200.977 179.974 C 195.337 179.974,193.030 179.999,195.850 180.029 M170.117 186.035 C 170.482 186.411,170.824 186.719,170.877 186.719 C 170.931 186.719,170.677 186.411,170.313 186.035 C 169.948 185.659,169.606 185.352,169.552 185.352 C 169.499 185.352,169.753 185.659,170.117 186.035 M201.332 188.232 C 203.944 188.263,208.163 188.263,210.707 188.232 C 213.251 188.201,211.113 188.176,205.957 188.176 C 200.801 188.176,198.719 188.202,201.332 188.232 M170.657 194.669 C 170.900 194.716,171.251 194.714,171.438 194.665 C 171.625 194.617,171.426 194.578,170.996 194.581 C 170.566 194.583,170.414 194.623,170.657 194.669 M230.618 194.669 C 230.860 194.716,231.212 194.714,231.399 194.665 C 231.585 194.617,231.387 194.578,230.957 194.581 C 230.527 194.583,230.375 194.623,230.618 194.669 M166.946 194.865 C 167.189 194.911,167.540 194.910,167.727 194.861 C 167.914 194.812,167.715 194.774,167.285 194.776 C 166.855 194.778,166.703 194.818,166.946 194.865 M234.033 194.861 C 234.221 194.910,234.529 194.910,234.717 194.861 C 234.905 194.812,234.751 194.772,234.375 194.772 C 233.999 194.772,233.845 194.812,234.033 194.861 M163.721 196.814 C 163.909 196.863,164.216 196.863,164.404 196.814 C 164.592 196.765,164.438 196.725,164.063 196.725 C 163.687 196.725,163.533 196.765,163.721 196.814 M236.768 196.814 C 236.956 196.863,237.263 196.863,237.451 196.814 C 237.639 196.765,237.485 196.725,237.109 196.725 C 236.733 196.725,236.580 196.765,236.768 196.814 M166.260 197.010 C 166.448 197.059,166.755 197.059,166.943 197.010 C 167.131 196.961,166.978 196.920,166.602 196.920 C 166.226 196.920,166.072 196.961,166.260 197.010 M233.740 197.013 C 233.982 197.059,234.377 197.059,234.619 197.013 C 234.861 196.966,234.663 196.928,234.180 196.928 C 233.696 196.928,233.499 196.966,233.740 197.013 M169.482 197.208 C 169.724 197.255,170.120 197.255,170.361 197.208 C 170.603 197.162,170.405 197.124,169.922 197.124 C 169.438 197.124,169.241 197.162,169.482 197.208 M230.420 197.208 C 230.662 197.255,231.057 197.255,231.299 197.208 C 231.541 197.162,231.343 197.124,230.859 197.124 C 230.376 197.124,230.178 197.162,230.420 197.208 M173.392 197.407 C 173.743 197.451,174.271 197.450,174.564 197.405 C 174.858 197.361,174.570 197.325,173.926 197.326 C 173.281 197.327,173.041 197.364,173.392 197.407 M226.322 197.407 C 226.673 197.451,227.200 197.450,227.494 197.405 C 227.787 197.361,227.500 197.325,226.855 197.326 C 226.211 197.327,225.971 197.364,226.322 197.407 M180.225 197.606 C 180.896 197.644,181.995 197.644,182.666 197.606 C 183.337 197.567,182.788 197.536,181.445 197.536 C 180.103 197.536,179.553 197.567,180.225 197.606 M219.971 197.604 C 220.481 197.645,221.316 197.645,221.826 197.604 C 222.336 197.564,221.919 197.531,220.898 197.531 C 219.878 197.531,219.460 197.564,219.971 197.604 M198.779 197.803 C 201.384 197.833,205.647 197.833,208.252 197.803 C 210.857 197.772,208.726 197.747,203.516 197.747 C 198.306 197.747,196.174 197.772,198.779 197.803 M193.294 219.869 C 193.243 219.952,194.877 219.994,196.925 219.962 C 199.801 219.918,200.691 219.963,200.828 220.158 C 200.965 220.352,200.988 220.343,200.926 220.117 C 200.839 219.797,193.487 219.558,193.294 219.869 M263.952 219.982 C 263.898 220.124,263.882 221.201,263.916 222.376 L 263.980 224.512 264.021 222.217 L 264.063 219.922 278.320 219.922 L 292.578 219.922 292.578 223.241 L 292.578 226.559 281.885 226.612 L 271.191 226.665 281.934 226.663 L 292.676 226.660 292.676 223.242 L 292.676 219.824 278.363 219.774 C 266.650 219.733,264.033 219.771,263.952 219.982 M156.722 223.438 C 156.722 225.425,156.751 226.238,156.786 225.244 C 156.822 224.250,156.822 222.625,156.786 221.631 C 156.751 220.637,156.722 221.450,156.722 223.438 M234.704 226.512 L 241.576 226.567 241.657 227.004 C 241.726 227.380,241.734 227.373,241.718 226.953 L 241.699 226.465 234.766 226.461 L 227.832 226.457 234.704 226.512 M156.723 232.031 C 156.723 234.233,156.751 235.134,156.786 234.033 C 156.821 232.932,156.821 231.130,156.786 230.029 C 156.751 228.928,156.723 229.829,156.723 232.031 M249.114 237.598 C 249.114 242.646,249.139 244.740,249.170 242.250 C 249.201 239.760,249.201 235.629,249.170 233.070 C 249.139 230.511,249.114 232.549,249.114 237.598 M163.928 231.934 C 163.929 232.578,163.965 232.818,164.009 232.467 C 164.052 232.116,164.051 231.589,164.007 231.295 C 163.962 231.002,163.927 231.289,163.928 231.934 M272.119 236.463 C 272.307 236.512,272.615 236.512,272.803 236.463 C 272.991 236.414,272.837 236.373,272.461 236.373 C 272.085 236.373,271.931 236.414,272.119 236.463 M282.666 236.475 L 290.039 236.528 290.039 239.537 C 290.039 241.761,289.975 242.571,289.795 242.644 C 289.649 242.703,289.688 242.749,289.893 242.758 C 290.205 242.772,290.234 242.496,290.234 239.551 L 290.234 236.328 282.764 236.375 L 275.293 236.421 282.666 236.475 M156.725 241.309 C 156.725 243.994,156.753 245.120,156.786 243.810 C 156.820 242.501,156.820 240.303,156.787 238.927 C 156.753 237.552,156.725 238.623,156.725 241.309 M241.670 240.625 C 241.670 241.538,241.703 241.912,241.745 241.455 C 241.786 240.999,241.786 240.251,241.745 239.795 C 241.703 239.338,241.670 239.712,241.670 240.625 M202.051 244.141 L 200.684 244.267 201.990 244.301 C 202.709 244.320,203.352 244.248,203.418 244.141 C 203.484 244.033,203.512 243.961,203.478 243.980 C 203.445 243.999,202.803 244.071,202.051 244.141 M241.657 247.168 C 241.659 247.705,241.697 247.902,241.742 247.605 C 241.787 247.308,241.785 246.868,241.739 246.628 C 241.693 246.388,241.656 246.631,241.657 247.168 M156.723 250.879 C 156.723 253.027,156.751 253.933,156.786 252.891 C 156.821 251.850,156.821 250.092,156.786 248.985 C 156.752 247.878,156.723 248.730,156.723 250.879 M227.905 248.779 C 227.662 249.089,227.669 249.096,227.979 248.853 C 228.268 248.626,228.372 248.626,228.662 248.853 C 228.972 249.096,228.979 249.089,228.736 248.779 C 228.588 248.591,228.401 248.438,228.320 248.438 C 228.239 248.438,228.052 248.591,227.905 248.779 M229.875 250.244 C 230.684 251.106,230.859 251.262,230.859 251.115 C 230.859 251.084,230.442 250.666,229.932 250.187 L 229.004 249.316 229.875 250.244 M189.600 250.731 C 190.486 250.767,191.936 250.767,192.822 250.731 C 193.708 250.695,192.983 250.665,191.211 250.665 C 189.438 250.665,188.713 250.695,189.600 250.731 M199.707 250.720 C 203.078 250.861,206.206 250.866,206.123 250.732 C 206.073 250.652,204.301 250.603,202.186 250.625 C 200.070 250.646,198.955 250.689,199.707 250.720 M225.000 254.944 C 225.000 254.978,225.286 255.263,225.635 255.579 L 226.270 256.152 225.696 255.518 C 225.161 254.926,225.000 254.793,225.000 254.944 M245.313 255.957 C 244.838 256.440,244.494 256.836,244.548 256.836 C 244.601 256.836,245.033 256.440,245.508 255.957 C 245.982 255.474,246.326 255.078,246.273 255.078 C 246.219 255.078,245.787 255.474,245.313 255.957 M156.680 257.275 C 156.642 258.935,156.653 258.984,157.080 258.962 C 157.399 258.945,157.428 258.915,157.185 258.851 C 156.912 258.779,156.839 258.474,156.786 257.165 L 156.720 255.566 156.680 257.275 M271.240 258.935 C 275.242 258.965,281.790 258.965,285.791 258.935 C 289.792 258.906,286.519 258.882,278.516 258.882 C 270.513 258.882,267.239 258.906,271.240 258.935 M231.846 271.962 L 230.977 272.949 231.934 272.028 C 232.460 271.522,232.852 271.078,232.803 271.041 C 232.755 271.005,232.324 271.420,231.846 271.962 M113.623 275.730 C 114.187 275.769,115.110 275.769,115.674 275.730 C 116.238 275.690,115.776 275.658,114.648 275.658 C 113.521 275.658,113.059 275.690,113.623 275.730 M129.450 275.730 C 130.017 275.770,130.896 275.769,131.403 275.729 C 131.910 275.689,131.445 275.657,130.371 275.657 C 129.297 275.658,128.882 275.691,129.450 275.730 M146.221 275.732 C 146.171 275.813,146.671 275.854,147.333 275.824 C 149.355 275.732,149.594 275.646,147.912 275.615 C 147.032 275.599,146.271 275.652,146.221 275.732 M163.721 275.728 C 164.124 275.770,164.783 275.770,165.186 275.728 C 165.588 275.686,165.259 275.652,164.453 275.652 C 163.647 275.652,163.318 275.686,163.721 275.728 M166.106 285.059 C 166.106 290.322,166.131 292.448,166.162 289.781 C 166.193 287.115,166.193 282.809,166.162 280.211 C 166.131 277.614,166.106 279.795,166.106 285.059 M203.060 275.716 C 202.879 275.897,202.895 294.487,203.076 294.599 C 203.157 294.649,203.199 290.436,203.170 285.238 L 203.118 275.788 208.444 275.732 L 213.770 275.677 208.480 275.631 C 205.570 275.606,203.132 275.645,203.060 275.716 M266.162 275.729 C 266.619 275.770,267.366 275.770,267.822 275.729 C 268.279 275.688,267.905 275.654,266.992 275.654 C 266.079 275.654,265.706 275.688,266.162 275.729 M276.414 284.904 L 276.461 294.238 276.514 285.010 L 276.566 275.781 278.027 275.781 L 279.487 275.781 279.542 282.959 L 279.597 290.137 279.593 282.910 L 279.590 275.684 277.979 275.627 L 276.367 275.570 276.414 284.904 M132.509 281.641 C 132.509 284.917,132.535 286.257,132.568 284.619 C 132.601 282.981,132.601 280.300,132.568 278.662 C 132.535 277.024,132.509 278.364,132.509 281.641 M268.413 276.953 C 268.413 277.437,268.451 277.634,268.497 277.393 C 268.544 277.151,268.544 276.755,268.497 276.514 C 268.451 276.272,268.413 276.470,268.413 276.953 M245.107 278.076 L 244.434 278.809 245.166 278.136 C 245.569 277.765,245.898 277.436,245.898 277.403 C 245.898 277.254,245.733 277.394,245.107 278.076 M216.617 277.878 L 216.602 278.314 211.377 278.366 L 206.152 278.418 206.098 281.104 L 206.044 283.789 210.883 283.744 L 215.723 283.699 210.986 283.643 L 206.250 283.587 206.250 281.051 L 206.250 278.516 211.432 278.516 C 216.833 278.516,217.050 278.482,216.733 277.692 C 216.678 277.554,216.625 277.638,216.617 277.878 M112.589 286.328 C 112.589 290.894,112.615 292.761,112.646 290.479 C 112.678 288.196,112.678 284.460,112.646 282.178 C 112.615 279.895,112.589 281.763,112.589 286.328 M179.346 278.260 C 179.534 278.309,179.841 278.309,180.029 278.260 C 180.217 278.211,180.063 278.170,179.688 278.170 C 179.312 278.170,179.158 278.211,179.346 278.260 M251.807 278.260 C 251.995 278.309,252.302 278.309,252.490 278.260 C 252.678 278.211,252.524 278.170,252.148 278.170 C 251.772 278.170,251.619 278.211,251.807 278.260 M173.496 280.664 C 173.496 281.255,173.533 281.497,173.577 281.201 C 173.622 280.906,173.622 280.422,173.577 280.127 C 173.533 279.832,173.496 280.073,173.496 280.664 M115.713 287.695 C 115.713 291.509,115.739 293.069,115.771 291.162 C 115.803 289.255,115.803 286.135,115.771 284.229 C 115.739 282.322,115.713 283.882,115.713 287.695 M215.492 285.156 C 215.492 285.854,215.528 286.140,215.571 285.791 C 215.614 285.442,215.614 284.871,215.571 284.521 C 215.528 284.172,215.492 284.458,215.492 285.156 M206.099 290.576 L 206.144 294.629 206.201 290.677 L 206.258 286.726 210.893 286.670 L 215.527 286.614 210.791 286.569 L 206.055 286.523 206.099 290.576 M257.202 289.990 C 256.958 290.301,256.965 290.307,257.279 290.061 C 257.579 289.826,257.682 289.839,258.060 290.159 L 258.496 290.527 258.124 290.088 C 257.676 289.559,257.550 289.546,257.202 289.990 M145.068 290.177 C 145.310 290.223,145.706 290.223,145.947 290.177 C 146.189 290.130,145.991 290.092,145.508 290.092 C 145.024 290.092,144.827 290.130,145.068 290.177 M148.489 290.179 C 148.786 290.224,149.225 290.223,149.466 290.177 C 149.706 290.130,149.463 290.093,148.926 290.095 C 148.389 290.096,148.192 290.134,148.489 290.179 M284.464 291.746 L 289.241 291.804 289.311 293.119 L 289.381 294.434 289.368 293.066 L 289.355 291.699 284.521 291.694 L 279.687 291.689 284.464 291.746 M179.736 291.937 C 180.032 291.982,180.515 291.982,180.811 291.937 C 181.106 291.892,180.864 291.855,180.273 291.855 C 179.683 291.855,179.441 291.892,179.736 291.937 M132.484 293.359 C 132.484 294.058,132.520 294.343,132.563 293.994 C 132.606 293.645,132.606 293.074,132.563 292.725 C 132.520 292.375,132.484 292.661,132.484 293.359 M179.932 294.861 C 180.120 294.910,180.427 294.910,180.615 294.861 C 180.803 294.812,180.649 294.772,180.273 294.772 C 179.897 294.772,179.744 294.812,179.932 294.861 M251.709 294.864 C 251.951 294.911,252.346 294.911,252.588 294.864 C 252.830 294.818,252.632 294.780,252.148 294.780 C 251.665 294.780,251.467 294.818,251.709 294.864 " stroke="none" fill="#9abecf" fill-rule="evenodd"></path><path id="path4" d="M186.591 106.595 C 186.387 106.724,200.564 106.720,210.449 106.587 C 212.598 106.558,208.159 106.516,200.586 106.493 C 193.013 106.470,186.715 106.516,186.591 106.595 M185.134 107.571 C 184.608 108.062,184.226 108.663,183.984 109.378 L 183.621 110.449 180.629 110.555 L 177.637 110.660 180.811 110.701 L 183.984 110.742 183.989 110.205 C 183.995 109.349,184.652 108.130,185.468 107.457 C 185.883 107.115,186.154 106.836,186.072 106.836 C 185.990 106.836,185.568 107.167,185.134 107.571 M222.414 110.685 C 222.657 110.732,223.009 110.730,223.196 110.681 C 223.382 110.632,223.184 110.594,222.754 110.596 C 222.324 110.598,222.171 110.638,222.414 110.685 M175.293 111.223 C 174.539 111.569,174.890 111.574,175.781 111.230 C 176.157 111.086,176.333 110.964,176.172 110.961 C 176.011 110.958,175.615 111.076,175.293 111.223 M173.118 112.274 C 171.718 113.179,170.183 114.702,169.568 115.797 C 168.971 116.859,169.159 116.837,169.791 115.771 C 170.462 114.639,172.124 113.057,173.524 112.218 C 174.162 111.836,174.593 111.523,174.482 111.523 C 174.370 111.523,173.757 111.861,173.118 112.274 M186.328 115.568 C 185.909 115.722,185.349 116.240,185.108 116.697 C 184.994 116.913,185.169 116.804,185.497 116.455 C 185.826 116.106,186.125 115.800,186.162 115.775 C 186.200 115.750,192.646 115.683,200.488 115.626 L 214.746 115.522 200.684 115.491 C 192.949 115.474,186.489 115.509,186.328 115.568 M168.586 117.684 C 168.462 117.958,168.363 118.288,168.367 118.417 C 168.371 118.547,168.504 118.353,168.663 117.988 C 168.997 117.219,168.926 116.939,168.586 117.684 M184.783 119.004 C 184.742 119.827,185.796 121.095,186.518 121.093 C 186.682 121.092,186.561 120.958,186.249 120.795 C 185.563 120.438,185.220 120.016,184.981 119.238 C 184.878 118.905,184.793 118.804,184.783 119.004 M167.773 123.236 L 167.773 125.573 165.576 125.635 L 163.379 125.698 165.674 125.740 L 167.969 125.781 167.969 123.340 C 167.969 121.997,167.925 120.898,167.871 120.898 C 167.817 120.898,167.773 121.950,167.773 123.236 M190.381 121.240 C 192.341 121.272,195.549 121.272,197.510 121.240 C 199.470 121.208,197.866 121.182,193.945 121.182 C 190.024 121.182,188.420 121.208,190.381 121.240 M188.736 124.365 C 195.485 124.394,206.471 124.394,213.150 124.365 C 219.829 124.337,214.307 124.313,200.879 124.313 C 187.451 124.313,181.987 124.337,188.736 124.365 M175.195 124.618 C 174.981 124.763,175.060 124.781,175.488 124.685 C 176.206 124.525,176.362 124.413,175.863 124.417 C 175.657 124.419,175.356 124.509,175.195 124.618 M173.793 125.440 C 173.136 125.990,172.263 127.296,172.273 127.713 C 172.277 127.886,172.414 127.720,172.576 127.344 C 172.738 126.968,173.236 126.287,173.683 125.830 C 174.569 124.925,174.618 124.749,173.793 125.440 M236.670 125.724 C 236.912 125.770,237.307 125.770,237.549 125.724 C 237.791 125.677,237.593 125.639,237.109 125.639 C 236.626 125.639,236.428 125.677,236.670 125.724 M161.668 126.391 C 161.099 126.815,160.156 128.267,160.156 128.718 C 160.156 128.864,160.385 128.523,160.666 127.961 C 160.968 127.354,161.463 126.743,161.883 126.458 C 162.272 126.193,162.504 125.979,162.399 125.983 C 162.293 125.986,161.964 126.170,161.668 126.391 M186.519 128.662 L 184.863 130.371 186.572 128.715 C 188.160 127.177,188.370 126.953,188.228 126.953 C 188.199 126.953,187.430 127.722,186.519 128.662 M172.125 142.480 C 172.093 154.853,172.129 157.018,172.375 157.520 C 172.533 157.842,172.595 157.930,172.513 157.715 C 172.431 157.500,172.318 150.732,172.263 142.676 L 172.162 128.027 172.125 142.480 M229.389 142.383 C 229.389 150.063,229.414 153.206,229.443 149.365 C 229.473 145.525,229.473 139.241,229.443 135.400 C 229.414 131.560,229.389 134.702,229.389 142.383 M163.818 129.117 C 163.630 129.227,163.477 129.453,163.477 129.621 C 163.477 129.853,163.558 129.826,163.818 129.505 C 164.130 129.121,164.316 129.089,165.918 129.142 L 167.676 129.199 167.774 155.566 L 167.873 181.934 167.921 155.420 L 167.969 128.906 166.064 128.912 C 165.017 128.915,164.006 129.008,163.818 129.117 M234.033 129.046 C 234.329 129.091,234.812 129.091,235.107 129.046 C 235.403 129.001,235.161 128.965,234.570 128.965 C 233.979 128.965,233.738 129.001,234.033 129.046 M159.961 131.030 L 159.961 132.959 159.344 133.082 C 158.547 133.242,158.691 133.382,159.521 133.255 L 160.156 133.159 160.156 131.130 C 160.156 130.014,160.112 129.102,160.059 129.102 C 160.005 129.102,159.961 129.969,159.961 131.030 M237.962 131.348 C 237.962 132.422,237.995 132.836,238.035 132.269 C 238.074 131.701,238.074 130.822,238.034 130.316 C 237.994 129.809,237.961 130.273,237.962 131.348 M186.127 134.521 L 184.863 135.840 186.182 134.576 C 186.907 133.881,187.500 133.288,187.500 133.258 C 187.500 133.114,187.301 133.297,186.127 134.521 M195.313 134.277 C 194.838 134.761,194.494 135.156,194.548 135.156 C 194.601 135.156,195.033 134.761,195.508 134.277 C 195.982 133.794,196.326 133.398,196.273 133.398 C 196.219 133.398,195.787 133.794,195.313 134.277 M165.359 134.082 C 165.811 134.853,165.820 134.865,165.820 134.625 C 165.820 134.511,165.639 134.211,165.418 133.957 L 165.016 133.496 165.359 134.082 M157.467 135.352 C 157.467 135.728,157.507 135.881,157.557 135.693 C 157.606 135.505,157.606 135.198,157.557 135.010 C 157.507 134.822,157.467 134.976,157.467 135.352 M165.866 140.980 C 165.818 147.417,165.795 147.586,164.874 148.417 C 164.365 148.877,164.364 148.880,164.844 148.590 C 165.998 147.892,166.026 147.702,165.967 140.993 L 165.912 134.863 165.866 140.980 M235.634 141.016 C 235.634 144.292,235.660 145.632,235.693 143.994 C 235.726 142.356,235.726 139.675,235.693 138.037 C 235.660 136.399,235.634 137.739,235.634 141.016 M195.596 136.377 L 194.824 137.207 195.654 136.435 C 196.111 136.010,196.484 135.637,196.484 135.605 C 196.484 135.457,196.314 135.605,195.596 136.377 M185.445 137.549 L 183.887 139.160 185.498 137.602 C 186.995 136.155,187.198 135.938,187.056 135.938 C 187.027 135.938,186.301 136.663,185.445 137.549 M157.507 142.188 C 157.507 144.927,157.534 146.047,157.568 144.678 C 157.601 143.308,157.601 141.067,157.568 139.697 C 157.534 138.328,157.507 139.448,157.507 142.188 M188.958 140.479 L 187.988 141.504 189.014 140.535 C 189.578 140.002,190.039 139.540,190.039 139.509 C 190.039 139.364,189.858 139.526,188.958 140.479 M158.691 148.633 C 159.014 148.846,159.406 149.021,159.563 149.022 C 159.720 149.023,159.503 148.848,159.082 148.633 C 158.106 148.135,157.940 148.135,158.691 148.633 M160.791 149.167 C 161.301 149.207,162.136 149.207,162.646 149.167 C 163.157 149.127,162.739 149.094,161.719 149.094 C 160.698 149.094,160.281 149.127,160.791 149.167 M214.602 152.482 C 214.845 152.529,215.196 152.527,215.383 152.478 C 215.570 152.429,215.371 152.391,214.941 152.393 C 214.512 152.395,214.359 152.435,214.602 152.482 M172.658 158.251 C 172.655 158.492,174.057 159.966,174.495 160.182 C 174.719 160.293,174.620 160.153,174.276 159.871 C 173.931 159.590,173.426 159.077,173.155 158.732 C 172.883 158.388,172.660 158.171,172.658 158.251 M208.401 160.596 C 208.399 160.915,208.815 160.935,214.795 160.892 L 221.191 160.846 214.951 160.791 C 210.260 160.750,208.673 160.677,208.558 160.495 C 208.450 160.325,208.404 160.355,208.401 160.596 M223.682 160.547 C 223.733 160.738,224.027 160.848,224.527 160.865 C 225.261 160.889,225.264 160.886,224.611 160.800 C 224.236 160.751,223.856 160.608,223.766 160.482 C 223.655 160.326,223.628 160.347,223.682 160.547 M183.657 160.889 C 187.828 160.918,194.595 160.918,198.696 160.889 C 202.797 160.859,199.385 160.835,191.113 160.835 C 182.842 160.835,179.486 160.859,183.657 160.889 M177.272 169.917 C 178.938 170.107,180.116 170.833,180.859 172.128 C 181.179 172.687,181.442 173.045,181.443 172.922 C 181.454 171.617,178.823 169.707,177.077 169.753 L 176.074 169.780 177.272 169.917 M175.098 170.149 C 174.129 170.682,172.628 172.498,172.917 172.787 C 172.969 172.839,173.071 172.693,173.144 172.463 C 173.363 171.774,174.456 170.666,175.291 170.286 C 175.722 170.091,175.942 169.931,175.781 169.932 C 175.620 169.933,175.313 170.031,175.098 170.149 M186.068 171.224 C 185.996 171.296,185.946 171.581,185.957 171.859 L 185.976 172.363 186.112 171.875 L 186.248 171.387 197.665 171.287 L 209.082 171.187 197.640 171.140 C 191.347 171.115,186.139 171.152,186.068 171.224 M186.166 172.656 C 186.251 172.913,188.041 172.949,200.700 172.951 L 215.137 172.953 200.897 172.901 C 189.897 172.861,186.591 172.794,186.364 172.606 C 186.122 172.407,186.087 172.416,186.166 172.656 M181.474 174.219 C 181.412 175.996,180.114 177.973,178.718 178.416 C 178.483 178.490,178.337 178.598,178.394 178.655 C 178.637 178.898,180.278 177.671,180.835 176.832 C 181.510 175.811,181.706 175.055,181.590 173.917 C 181.522 173.257,181.506 173.301,181.474 174.219 M220.166 174.316 C 220.169 174.746,220.209 174.899,220.255 174.656 C 220.302 174.413,220.300 174.061,220.251 173.875 C 220.202 173.688,220.164 173.887,220.166 174.316 M197.301 174.560 C 200.167 174.591,204.913 174.591,207.848 174.560 C 210.782 174.530,208.438 174.505,202.637 174.505 C 196.836 174.505,194.435 174.530,197.301 174.560 M187.305 174.912 C 187.305 175.410,187.880 176.367,188.180 176.367 C 188.367 176.367,188.301 176.210,187.979 175.888 C 187.457 175.365,187.360 174.894,187.744 174.739 C 187.890 174.680,187.851 174.634,187.646 174.625 C 187.458 174.616,187.305 174.746,187.305 174.912 M172.859 175.843 C 172.832 176.394,174.162 177.975,175.039 178.435 C 175.933 178.903,175.904 178.741,174.989 178.155 C 174.019 177.533,173.631 177.129,173.177 176.270 C 173.007 175.947,172.864 175.755,172.859 175.843 M191.943 176.513 C 193.582 176.546,196.262 176.546,197.900 176.513 C 199.539 176.481,198.198 176.454,194.922 176.454 C 191.646 176.454,190.305 176.481,191.943 176.513 M189.893 178.068 C 188.894 178.260,189.872 179.906,190.958 179.860 L 191.504 179.837 190.939 179.713 C 190.340 179.582,189.474 178.625,189.726 178.372 C 189.809 178.290,194.813 178.177,200.846 178.121 L 211.816 178.019 201.074 178.001 C 195.166 177.991,190.134 178.021,189.893 178.068 M176.517 178.852 C 176.868 178.896,177.396 178.895,177.689 178.850 C 177.983 178.806,177.695 178.770,177.051 178.771 C 176.406 178.773,176.166 178.809,176.517 178.852 M167.972 182.536 C 167.973 182.742,168.064 183.042,168.173 183.203 C 168.318 183.417,168.336 183.338,168.240 182.910 C 168.080 182.192,167.968 182.036,167.972 182.536 M169.104 185.071 C 169.414 185.676,170.950 187.028,171.848 187.486 C 173.066 188.108,173.088 187.959,171.875 187.303 C 171.284 186.984,170.373 186.260,169.849 185.695 C 169.326 185.130,168.991 184.849,169.104 185.071 M174.164 188.223 C 174.581 188.304,174.600 188.403,174.659 190.784 L 174.720 193.262 174.762 190.674 L 174.805 188.086 174.268 188.113 C 173.816 188.135,173.799 188.152,174.164 188.223 M185.937 188.232 C 185.937 188.313,187.541 188.356,189.502 188.329 C 196.169 188.235,196.789 188.168,191.357 188.127 C 188.376 188.104,185.937 188.152,185.937 188.232 M226.843 188.341 C 226.789 188.482,226.773 189.647,226.807 190.929 L 226.869 193.262 226.911 190.786 C 226.948 188.613,226.995 188.299,227.295 188.221 C 227.615 188.137,227.615 188.130,227.289 188.109 C 227.097 188.096,226.897 188.201,226.843 188.341 M198.193 194.092 C 200.906 194.122,205.344 194.122,208.057 194.092 C 210.769 194.061,208.550 194.036,203.125 194.036 C 197.700 194.036,195.481 194.061,198.193 194.092 M228.174 197.400 C 228.362 197.449,228.669 197.449,228.857 197.400 C 229.045 197.351,228.892 197.311,228.516 197.311 C 228.140 197.311,227.986 197.351,228.174 197.400 M177.786 197.601 C 178.083 197.646,178.522 197.645,178.762 197.598 C 179.003 197.552,178.760 197.515,178.223 197.517 C 177.686 197.518,177.489 197.556,177.786 197.601 M223.096 197.601 C 223.391 197.646,223.875 197.646,224.170 197.601 C 224.465 197.556,224.224 197.519,223.633 197.519 C 223.042 197.519,222.800 197.556,223.096 197.601 M190.779 197.801 C 191.455 197.839,192.509 197.839,193.123 197.800 C 193.736 197.762,193.184 197.730,191.895 197.731 C 190.605 197.731,190.104 197.763,190.779 197.801 M213.825 197.800 C 214.392 197.840,215.271 197.840,215.778 197.800 C 216.285 197.759,215.820 197.727,214.746 197.728 C 213.672 197.728,213.257 197.761,213.825 197.800 M264.600 219.669 C 264.841 219.716,265.237 219.716,265.479 219.669 C 265.720 219.623,265.522 219.584,265.039 219.584 C 264.556 219.584,264.358 219.623,264.600 219.669 M269.678 219.673 C 270.027 219.716,270.598 219.716,270.947 219.673 C 271.296 219.629,271.011 219.594,270.313 219.594 C 269.614 219.594,269.329 219.629,269.678 219.673 M110.059 219.871 C 113.632 219.919,114.192 219.968,114.404 220.254 C 114.539 220.435,114.648 220.495,114.648 220.389 C 114.648 219.795,114.141 219.727,110.068 219.771 L 105.957 219.816 110.059 219.871 M138.184 219.861 C 141.524 220.001,145.118 220.007,145.118 219.873 C 145.117 219.792,143.250 219.744,140.967 219.765 C 138.684 219.787,137.432 219.830,138.184 219.861 M160.303 219.871 L 164.063 219.930 164.063 239.453 L 164.063 258.976 160.498 259.036 L 156.934 259.096 160.547 259.089 L 164.160 259.082 164.160 239.453 L 164.160 219.824 160.352 219.818 L 156.543 219.811 160.303 219.871 M192.862 220.331 C 192.690 220.663,192.584 220.969,192.626 221.012 C 192.669 221.054,192.850 220.782,193.028 220.408 C 193.430 219.565,193.291 219.501,192.862 220.331 M227.583 223.192 L 227.627 226.660 227.685 223.291 L 227.744 219.922 238.380 219.922 L 249.016 219.922 249.074 224.219 L 249.133 228.516 249.127 224.170 L 249.121 219.824 238.330 219.774 L 227.539 219.723 227.583 223.192 M201.440 221.289 C 201.612 221.923,202.202 223.254,202.278 223.178 C 202.322 223.134,202.134 222.625,201.860 222.047 C 201.586 221.469,201.397 221.128,201.440 221.289 M135.959 222.092 C 135.839 222.437,135.775 222.754,135.816 222.796 C 135.858 222.837,135.991 222.589,136.111 222.244 C 136.231 221.899,136.296 221.582,136.254 221.540 C 136.212 221.499,136.080 221.747,135.959 222.092 M192.024 222.176 C 191.697 222.895,191.759 223.048,192.113 222.395 C 192.278 222.090,192.377 221.804,192.332 221.759 C 192.287 221.715,192.149 221.902,192.024 222.176 M156.539 239.844 C 156.539 249.780,156.563 253.845,156.592 248.877 C 156.621 243.909,156.621 235.779,156.592 230.811 C 156.563 225.842,156.539 229.907,156.539 239.844 M191.243 223.934 C 190.915 224.652,190.978 224.806,191.332 224.153 C 191.497 223.848,191.596 223.562,191.551 223.517 C 191.506 223.472,191.368 223.660,191.243 223.934 M202.358 223.535 C 202.358 223.643,202.483 223.950,202.637 224.219 C 202.790 224.487,202.916 224.619,202.916 224.512 C 202.916 224.404,202.790 224.097,202.637 223.828 C 202.483 223.560,202.358 223.428,202.358 223.535 M134.983 224.631 C 134.862 224.976,134.798 225.293,134.840 225.335 C 134.882 225.376,135.014 225.128,135.135 224.783 C 135.255 224.438,135.319 224.121,135.277 224.079 C 135.236 224.038,135.103 224.286,134.983 224.631 M263.961 241.699 C 263.961 251.260,263.985 255.142,264.014 250.327 C 264.043 245.512,264.043 237.690,264.014 232.944 C 263.984 228.199,263.961 232.139,263.961 241.699 M190.562 225.497 C 190.104 226.460,190.168 226.623,190.648 225.714 C 190.866 225.301,191.009 224.929,190.967 224.886 C 190.925 224.844,190.743 225.119,190.562 225.497 M108.022 225.045 C 107.999 225.276,108.636 226.781,108.720 226.697 C 108.762 226.654,108.626 226.233,108.416 225.761 C 108.207 225.289,108.029 224.966,108.022 225.045 M133.911 227.340 C 133.470 228.441,133.538 228.605,134.002 227.559 C 134.212 227.087,134.348 226.666,134.306 226.624 C 134.263 226.581,134.086 226.903,133.911 227.340 M189.572 227.756 C 189.285 228.418,189.083 228.992,189.122 229.031 C 189.161 229.070,189.428 228.560,189.714 227.897 C 190.000 227.234,190.202 226.661,190.164 226.622 C 190.126 226.584,189.860 227.094,189.572 227.756 M271.289 231.543 L 271.289 236.328 277.002 236.282 L 282.715 236.237 277.100 236.182 L 271.484 236.127 271.484 231.647 C 271.484 227.587,271.516 227.149,271.826 226.969 C 272.131 226.791,272.121 226.769,271.729 226.764 L 271.289 226.758 271.289 231.543 M196.611 229.025 C 196.425 229.416,196.312 229.776,196.361 229.824 C 196.409 229.873,196.508 229.725,196.581 229.496 C 196.821 228.739,197.102 229.184,198.345 232.298 C 199.424 235.001,199.805 235.844,199.805 235.525 C 199.805 235.478,199.162 233.836,198.377 231.877 L 196.950 228.315 196.611 229.025 M133.225 229.123 C 133.105 229.468,133.040 229.785,133.082 229.827 C 133.124 229.869,133.256 229.620,133.377 229.275 C 133.497 228.930,133.561 228.613,133.520 228.572 C 133.478 228.530,133.345 228.778,133.225 229.123 M241.687 233.984 C 241.687 236.831,241.714 237.996,241.748 236.572 C 241.781 235.149,241.781 232.820,241.748 231.396 C 241.714 229.973,241.687 231.138,241.687 233.984 M188.401 230.490 C 188.114 231.152,187.911 231.726,187.950 231.765 C 187.989 231.805,188.256 231.294,188.542 230.632 C 188.828 229.969,189.030 229.395,188.992 229.357 C 188.954 229.318,188.688 229.829,188.401 230.490 M110.057 230.225 C 110.132 230.413,110.374 231.030,110.594 231.596 C 110.815 232.162,111.030 232.590,111.072 232.547 C 111.169 232.451,110.152 229.883,110.017 229.883 C 109.963 229.883,109.981 230.037,110.057 230.225 M132.639 230.686 C 132.519 231.031,132.454 231.348,132.496 231.389 C 132.538 231.431,132.670 231.183,132.791 230.838 C 132.911 230.493,132.975 230.176,132.934 230.134 C 132.892 230.092,132.759 230.341,132.639 230.686 M132.053 232.248 C 131.933 232.593,131.868 232.910,131.910 232.952 C 131.952 232.994,132.085 232.745,132.205 232.400 C 132.325 232.055,132.389 231.738,132.348 231.697 C 132.306 231.655,132.173 231.903,132.053 232.248 M187.437 232.724 C 186.979 233.686,187.043 233.850,187.523 232.941 C 187.741 232.528,187.884 232.155,187.842 232.113 C 187.800 232.071,187.618 232.346,187.437 232.724 M206.459 233.105 C 206.459 233.213,206.585 233.521,206.738 233.789 C 206.892 234.058,207.017 234.189,207.017 234.082 C 207.017 233.975,206.892 233.667,206.738 233.398 C 206.585 233.130,206.459 232.998,206.459 233.105 M131.274 234.302 C 131.042 234.910,130.884 235.441,130.924 235.482 C 130.965 235.522,131.188 235.057,131.421 234.448 C 131.654 233.840,131.811 233.309,131.771 233.268 C 131.731 233.228,131.507 233.693,131.274 234.302 M111.928 234.863 C 111.928 234.971,112.054 235.278,112.207 235.547 C 112.361 235.815,112.486 235.947,112.486 235.840 C 112.486 235.732,112.361 235.425,112.207 235.156 C 112.054 234.888,111.928 234.756,111.928 234.863 M186.360 235.262 C 186.033 235.980,186.095 236.134,186.449 235.481 C 186.614 235.176,186.713 234.890,186.668 234.845 C 186.623 234.801,186.485 234.988,186.360 235.262 M199.819 235.840 C 199.819 235.947,199.944 236.255,200.098 236.523 C 200.251 236.792,200.377 236.924,200.377 236.816 C 200.377 236.709,200.251 236.401,200.098 236.133 C 199.944 235.864,199.819 235.732,199.819 235.840 M185.774 236.629 C 185.447 237.348,185.509 237.501,185.863 236.848 C 186.028 236.543,186.127 236.257,186.082 236.212 C 186.037 236.168,185.899 236.355,185.774 236.629 M283.545 236.276 C 284.001 236.317,284.749 236.317,285.205 236.276 C 285.662 236.235,285.288 236.201,284.375 236.201 C 283.462 236.201,283.088 236.235,283.545 236.276 M130.100 237.326 C 129.980 237.672,129.915 237.988,129.957 238.030 C 129.999 238.072,130.131 237.823,130.252 237.478 C 130.372 237.133,130.436 236.817,130.395 236.775 C 130.353 236.733,130.220 236.981,130.100 237.326 M290.304 238.574 C 290.303 239.541,290.336 239.961,290.377 239.508 C 290.418 239.055,290.419 238.264,290.378 237.750 C 290.338 237.237,290.304 237.607,290.304 238.574 M200.391 237.172 C 200.391 237.418,201.416 239.860,201.489 239.787 C 201.529 239.747,201.333 239.150,201.054 238.461 C 200.560 237.239,200.391 236.911,200.391 237.172 M185.188 237.997 C 184.861 238.715,184.923 238.868,185.277 238.215 C 185.442 237.910,185.541 237.624,185.496 237.580 C 185.452 237.535,185.313 237.723,185.188 237.997 M129.514 238.889 C 129.394 239.234,129.329 239.551,129.371 239.592 C 129.413 239.634,129.545 239.386,129.666 239.041 C 129.786 238.696,129.850 238.379,129.809 238.337 C 129.767 238.295,129.634 238.544,129.514 238.889 M208.803 238.574 C 208.803 238.682,208.929 238.989,209.082 239.258 C 209.236 239.526,209.361 239.658,209.361 239.551 C 209.361 239.443,209.236 239.136,209.082 238.867 C 208.929 238.599,208.803 238.467,208.803 238.574 M184.602 239.364 C 184.275 240.082,184.337 240.235,184.691 239.582 C 184.856 239.277,184.955 238.991,184.910 238.947 C 184.866 238.902,184.727 239.090,184.602 239.364 M128.735 240.942 C 128.502 241.551,128.345 242.082,128.385 242.122 C 128.425 242.162,128.649 241.697,128.882 241.089 C 129.115 240.480,129.272 239.949,129.232 239.909 C 129.192 239.869,128.968 240.334,128.735 240.942 M201.636 240.234 C 201.807 240.868,202.397 242.199,202.473 242.123 C 202.517 242.079,202.329 241.570,202.055 240.992 C 201.781 240.414,201.592 240.073,201.636 240.234 M184.016 240.731 C 183.689 241.449,183.751 241.602,184.105 240.950 C 184.270 240.645,184.369 240.359,184.324 240.314 C 184.280 240.269,184.141 240.457,184.016 240.731 M114.467 241.061 C 114.445 241.292,115.081 242.797,115.165 242.712 C 115.208 242.670,115.071 242.249,114.862 241.777 C 114.652 241.304,114.475 240.982,114.467 241.061 M183.127 242.795 C 182.840 243.457,182.637 244.031,182.677 244.070 C 182.716 244.109,182.982 243.599,183.268 242.936 C 183.554 242.273,183.757 241.700,183.719 241.661 C 183.680 241.623,183.414 242.133,183.127 242.795 M241.655 242.969 C 241.655 243.452,241.693 243.650,241.739 243.408 C 241.786 243.167,241.786 242.771,241.739 242.529 C 241.693 242.288,241.655 242.485,241.655 242.969 M202.740 242.810 C 202.737 242.883,202.819 243.167,202.923 243.441 L 203.113 243.938 198.773 243.994 L 194.434 244.051 198.890 244.096 L 203.347 244.141 203.212 243.701 C 203.057 243.194,202.749 242.612,202.740 242.810 M271.377 243.022 C 271.324 243.158,271.305 245.290,271.334 247.758 L 271.387 252.246 282.173 252.297 L 292.960 252.347 293.020 255.617 L 293.080 258.887 293.073 255.566 L 293.066 252.246 282.324 252.148 L 271.582 252.051 271.582 247.559 L 271.582 243.066 280.859 242.966 L 290.137 242.865 280.804 242.819 C 273.400 242.783,271.452 242.825,271.377 243.022 M190.744 243.278 C 190.562 243.752,190.592 243.831,191.064 244.121 C 191.494 244.385,191.496 244.382,191.157 244.001 C 190.960 243.779,190.864 243.473,190.934 243.290 C 191.002 243.113,191.013 242.969,190.960 242.969 C 190.906 242.969,190.809 243.108,190.744 243.278 M115.751 244.335 C 115.820 244.603,116.040 245.175,116.240 245.605 C 116.439 246.035,116.545 246.167,116.476 245.899 C 116.406 245.631,116.186 245.060,115.987 244.630 C 115.788 244.200,115.681 244.067,115.751 244.335 M241.664 245.117 C 241.664 245.815,241.700 246.101,241.743 245.752 C 241.786 245.403,241.786 244.832,241.743 244.482 C 241.700 244.133,241.664 244.419,241.664 245.117 M182.057 245.339 C 181.826 245.895,181.669 246.383,181.708 246.422 C 181.748 246.461,181.969 246.038,182.201 245.482 C 182.432 244.925,182.589 244.438,182.549 244.398 C 182.510 244.359,182.289 244.782,182.057 245.339 M191.526 244.775 C 191.936 245.474,193.191 247.266,193.271 247.266 C 193.321 247.266,192.953 246.650,192.453 245.898 C 191.953 245.146,191.508 244.531,191.464 244.531 C 191.419 244.531,191.448 244.641,191.526 244.775 M194.587 244.629 C 194.737 245.043,198.304 250.785,198.370 250.718 C 198.409 250.680,197.653 249.382,196.690 247.834 C 194.886 244.933,194.466 244.292,194.587 244.629 M124.135 245.508 C 124.207 245.776,124.347 246.128,124.447 246.289 C 124.573 246.493,124.588 246.433,124.497 246.094 C 124.426 245.825,124.285 245.474,124.186 245.313 C 124.060 245.109,124.045 245.168,124.135 245.508 M126.780 245.920 C 126.659 246.265,126.595 246.582,126.637 246.624 C 126.678 246.665,126.811 246.417,126.931 246.072 C 127.052 245.727,127.116 245.410,127.074 245.369 C 127.032 245.327,126.900 245.575,126.780 245.920 M116.615 246.529 C 116.593 246.760,117.229 248.266,117.314 248.181 C 117.356 248.139,117.220 247.717,117.010 247.245 C 116.801 246.773,116.623 246.451,116.615 246.529 M249.079 247.559 C 249.081 248.096,249.119 248.292,249.164 247.995 C 249.208 247.698,249.207 247.259,249.161 247.019 C 249.115 246.779,249.078 247.021,249.079 247.559 M126.009 248.037 C 125.754 248.768,125.681 248.774,125.287 248.096 C 124.984 247.574,125.012 247.723,125.441 248.908 L 125.646 249.476 126.013 248.540 C 126.215 248.026,126.344 247.568,126.299 247.523 C 126.254 247.478,126.124 247.709,126.009 248.037 M180.891 248.153 C 180.564 248.871,180.626 249.024,180.980 248.371 C 181.145 248.066,181.244 247.780,181.199 247.736 C 181.155 247.691,181.016 247.879,180.891 248.153 M241.260 248.651 C 240.937 250.025,240.220 251.066,239.112 251.768 C 238.613 252.085,238.297 252.344,238.409 252.344 C 239.543 252.344,241.816 249.167,241.567 247.930 C 241.532 247.757,241.394 248.081,241.260 248.651 M194.336 248.926 C 194.669 249.409,194.985 249.805,195.038 249.805 C 195.092 249.805,194.864 249.409,194.531 248.926 C 194.199 248.442,193.883 248.047,193.829 248.047 C 193.775 248.047,194.003 248.442,194.336 248.926 M227.348 249.212 C 227.122 249.531,226.149 250.465,225.187 251.288 C 224.225 252.110,223.438 252.852,223.438 252.935 C 223.438 253.291,225.293 255.513,226.228 256.277 C 227.148 257.029,227.122 256.987,225.959 255.849 C 225.251 255.157,224.421 254.208,224.114 253.741 L 223.556 252.892 224.424 252.182 C 225.735 251.110,227.553 249.363,227.760 248.976 C 228.050 248.433,227.801 248.576,227.348 249.212 M180.305 249.520 C 179.978 250.238,180.040 250.392,180.394 249.739 C 180.559 249.434,180.658 249.148,180.613 249.103 C 180.569 249.058,180.430 249.246,180.305 249.520 M229.849 250.028 C 230.756 250.978,232.422 252.172,232.422 251.873 C 232.422 251.815,232.139 251.621,231.793 251.443 C 231.447 251.264,230.634 250.627,229.986 250.028 L 228.809 248.938 229.849 250.028 M187.695 250.928 C 187.695 251.008,188.815 251.051,190.185 251.023 C 194.795 250.929,195.238 250.858,191.455 250.820 C 189.387 250.798,187.695 250.847,187.695 250.928 M205.704 250.914 C 205.887 250.962,206.092 251.178,206.161 251.394 C 206.230 251.610,206.329 251.744,206.381 251.692 C 206.575 251.498,206.030 250.782,205.706 250.804 C 205.393 250.825,205.392 250.832,205.704 250.914 M214.272 251.465 C 214.272 251.572,214.397 251.880,214.551 252.148 C 214.704 252.417,214.830 252.549,214.830 252.441 C 214.830 252.334,214.704 252.026,214.551 251.758 C 214.397 251.489,214.272 251.357,214.272 251.465 M119.057 252.734 C 119.129 253.003,119.269 253.354,119.369 253.516 C 119.495 253.719,119.510 253.660,119.419 253.320 C 119.347 253.052,119.207 252.700,119.108 252.539 C 118.982 252.335,118.966 252.395,119.057 252.734 M235.298 252.680 C 235.645 252.723,236.260 252.724,236.666 252.682 C 237.071 252.639,236.787 252.604,236.035 252.603 C 235.283 252.602,234.952 252.637,235.298 252.680 M178.743 253.231 C 178.415 253.949,178.478 254.102,178.832 253.450 C 178.997 253.145,179.096 252.859,179.051 252.814 C 179.006 252.769,178.868 252.957,178.743 253.231 M206.850 252.975 C 206.827 253.206,207.464 254.711,207.548 254.626 C 207.591 254.584,207.454 254.163,207.244 253.691 C 207.035 253.218,206.857 252.896,206.850 252.975 M178.157 254.598 C 177.829 255.316,177.892 255.470,178.246 254.817 C 178.411 254.512,178.510 254.226,178.465 254.181 C 178.420 254.136,178.282 254.324,178.157 254.598 M245.020 256.390 C 244.375 256.994,244.111 257.306,244.434 257.082 C 244.996 256.691,246.459 255.264,246.279 255.282 C 246.231 255.287,245.664 255.786,245.020 256.390 M177.157 256.942 C 176.815 257.764,176.568 258.469,176.609 258.510 C 176.649 258.550,176.960 257.909,177.299 257.085 C 177.639 256.260,177.885 255.555,177.848 255.517 C 177.810 255.479,177.499 256.121,177.157 256.942 M216.615 256.934 C 216.615 257.041,216.741 257.349,216.895 257.617 C 217.048 257.886,217.174 258.018,217.174 257.910 C 217.174 257.803,217.048 257.495,216.895 257.227 C 216.741 256.958,216.615 256.826,216.615 256.934 M121.106 257.871 C 121.099 257.957,121.228 258.287,121.392 258.603 L 121.690 259.180 125.542 259.135 L 129.395 259.091 125.571 259.034 L 121.747 258.976 121.433 258.346 C 121.260 257.999,121.113 257.785,121.106 257.871 M242.383 258.203 C 242.007 258.409,241.770 258.581,241.855 258.586 C 242.062 258.596,243.164 258.024,243.164 257.905 C 243.164 257.777,243.153 257.782,242.383 258.203 M176.537 259.037 C 176.620 259.120,178.440 259.164,180.580 259.135 L 184.473 259.081 180.429 258.984 C 178.205 258.930,176.454 258.955,176.537 259.037 M211.377 259.130 C 212.424 259.165,214.138 259.165,215.186 259.130 C 216.233 259.095,215.376 259.066,213.281 259.066 C 211.187 259.066,210.330 259.095,211.377 259.130 M235.114 259.715 C 235.682 259.754,236.560 259.754,237.067 259.714 C 237.574 259.674,237.109 259.641,236.035 259.642 C 234.961 259.642,234.546 259.675,235.114 259.715 M162.981 285.059 C 162.981 290.322,163.006 292.448,163.037 289.781 C 163.068 287.115,163.068 282.809,163.037 280.211 C 163.006 277.614,162.981 279.795,162.981 285.059 M112.563 276.953 C 112.563 277.651,112.598 277.937,112.641 277.588 C 112.685 277.239,112.685 276.667,112.641 276.318 C 112.598 275.969,112.563 276.255,112.563 276.953 M265.325 285.059 C 265.325 290.215,265.350 292.296,265.381 289.684 C 265.412 287.071,265.411 282.853,265.381 280.309 C 265.350 277.765,265.325 279.902,265.325 285.059 M216.647 276.953 C 216.647 277.329,216.687 277.483,216.736 277.295 C 216.785 277.107,216.785 276.799,216.736 276.611 C 216.687 276.423,216.647 276.577,216.647 276.953 M146.924 287.249 C 147.219 287.294,147.703 287.294,147.998 287.249 C 148.293 287.205,148.052 287.168,147.461 287.168 C 146.870 287.168,146.628 287.205,146.924 287.249 M132.497 289.844 C 132.497 291.187,132.528 291.736,132.566 291.064 C 132.605 290.393,132.605 289.294,132.566 288.623 C 132.528 287.952,132.497 288.501,132.497 289.844 M224.658 290.377 C 225.061 290.419,225.720 290.419,226.123 290.377 C 226.526 290.335,226.196 290.300,225.391 290.300 C 224.585 290.300,224.255 290.335,224.658 290.377 M230.134 290.379 C 230.756 290.418,231.722 290.417,232.283 290.378 C 232.843 290.339,232.334 290.307,231.152 290.307 C 229.971 290.308,229.512 290.340,230.134 290.379 M129.382 292.871 L 129.395 294.629 129.980 294.647 C 130.518 294.664,130.522 294.659,130.037 294.586 C 129.514 294.509,129.506 294.486,129.438 292.810 L 129.369 291.113 129.382 292.871 M113.137 294.671 C 113.434 294.716,113.874 294.715,114.114 294.669 C 114.354 294.622,114.111 294.586,113.574 294.587 C 113.037 294.589,112.841 294.627,113.137 294.671 M131.104 294.666 C 131.292 294.715,131.599 294.715,131.787 294.666 C 131.975 294.617,131.821 294.577,131.445 294.577 C 131.069 294.577,130.916 294.617,131.104 294.666 M203.955 294.674 C 204.358 294.716,205.017 294.716,205.420 294.674 C 205.823 294.631,205.493 294.597,204.688 294.597 C 203.882 294.597,203.552 294.631,203.955 294.674 M220.264 294.673 C 220.613 294.716,221.184 294.716,221.533 294.673 C 221.882 294.629,221.597 294.594,220.898 294.594 C 220.200 294.594,219.915 294.629,220.264 294.673 M235.797 294.675 C 236.310 294.715,237.101 294.715,237.555 294.674 C 238.008 294.633,237.588 294.600,236.621 294.601 C 235.654 294.601,235.283 294.635,235.797 294.675 M266.363 294.675 C 266.822 294.716,267.525 294.715,267.925 294.673 C 268.325 294.631,267.949 294.597,267.090 294.598 C 266.230 294.599,265.903 294.633,266.363 294.675 " stroke="none" fill="#cbebf3" fill-rule="evenodd"></path></g></svg>